<?xml version="1.0" encoding="UTF-8" standalone="no"?>
<!DOCTYPE svg PUBLIC "-//W3C//DTD SVG 1.1//EN" "http://www.w3.org/Graphics/SVG/1.1/DTD/svg11.dtd">
<svg width="100%" height="100%" viewBox="0 0 1373 284" version="1.1" xmlns="http://www.w3.org/2000/svg" xmlns:xlink="http://www.w3.org/1999/xlink" xml:space="preserve" xmlns:serif="http://www.serif.com/" style="fill-rule:evenodd;clip-rule:evenodd;stroke-linejoin:round;stroke-miterlimit:2;">
    <g transform="matrix(1,0,0,1,-313.564,-362.513)">
        <g id="Fill" transform="matrix(1,0,0,1,62.3273,22.5228)">
            <g id="e" transform="matrix(0.291141,0,0,0.291141,1376.78,334.89)">
                <g id="e1" serif:id="e">
                    <path d="M844.004,614.83C844.004,614.83 838.665,608.283 622.027,605.518C508.964,604.075 376.957,620.027 376.957,620.027C385.462,633.88 402.94,728.539 478.033,779.369C498.183,793.009 536.802,802.775 564.163,805.068C633.365,810.867 720.684,803.448 814.856,723.618C858.375,686.727 851.397,699.816 844.004,723.618C837.651,744.072 839.167,792.086 838.234,793.959C695.377,1080.6 179.584,1064.06 136.302,657.571C84.943,175.231 870.094,98.576 844.004,614.83ZM365.487,535.949C467.74,520.613 620.585,523.352 620.585,523.352C620.585,523.352 622.682,511.252 616.931,479.758C613.331,460.041 603.485,438.613 585.862,409.977C536.759,330.19 437.569,332.635 392.625,409.977C386.482,420.548 375.691,444.944 370.819,471.042C364.893,502.784 365.487,535.949 365.487,535.949Z" style="fill:rgb(37,79,34);"/>
                </g>
            </g>
            <g transform="matrix(0.291141,0,0,0.291141,1147.29,338.341)">
                <g id="n">
                    <path d="M440.169,381.536C432.554,297.603 481.834,245.623 468.552,254.428C387.231,308.336 232.078,341.607 160.432,351.204C137.549,354.269 101.725,360.37 105.4,367.747C108.753,374.479 129.825,392.446 131.263,395.075C165.046,456.813 174.169,660.536 154.512,843.308C143.349,953.953 38.87,981.437 124.614,977.325C181.241,974.609 302.7,978.516 387.397,977.558C443.321,976.926 466.958,981.507 481.355,972.906C484.874,970.805 472.536,961.955 468.339,955.023C413.466,864.376 411.38,539.306 440.169,468.998C464.362,409.915 514.905,427.349 567.722,412.764C611.992,400.539 609.709,444.58 614.804,476.481C624.771,538.88 619.821,853.787 600.366,901.995C593.28,919.554 552.435,973.392 567.722,976.952C578.771,979.525 663.582,968.21 761.201,972.906C816.621,975.573 980.456,988.398 934.823,963.642C903.84,946.833 887.804,855.543 884.545,801.771C880.709,738.488 902.731,433.009 858.386,358.391C822.26,297.602 725.15,215.752 544.756,292.303C495.509,317.23 484.603,339.159 440.169,381.536Z" style="fill:rgb(37,79,34);"/>
                </g>
            </g>
            <g transform="matrix(0.291141,0,0,0.291141,927.991,334.432)">
                <g id="o">
                    <path d="M765.776,899.08C663.668,989.159 468.981,1020.72 332.715,958.863C158.994,879.998 122.108,689.37 123.591,641.242C132.144,363.609 306.744,299.241 414.87,272.446C452.801,263.046 453.043,265.966 492.164,263.536C588.474,257.552 689.04,320.662 765.776,390.754C792.282,414.966 877.745,491.335 882.161,619.832C885.572,719.078 816.933,853.949 765.776,899.08ZM586.556,550.019C528.192,425.891 461.931,306.304 382.636,390.754C359.157,415.76 353.48,456.097 352.216,478.266C351.131,497.3 353.518,506.769 362.865,554.599C390.115,657.181 391.919,660.855 424.499,720.586C485.361,834.92 614.47,941.444 643.796,821.187C646.835,808.725 648.803,793.828 649.511,776.252C638.837,675.471 634.801,681.034 601.415,583.443L586.556,550.019Z" style="fill:rgb(37,79,34);"/>
                </g>
            </g>
            <g transform="matrix(0.291141,0,0,0.291141,705.622,336.964)">
                <g id="h">
                    <path d="M104.091,935.012C137.946,831.329 131.655,722.918 133.875,622.986C138.109,432.428 150.925,220.521 82.641,155.851C49.21,116.692 35.253,124.347 103.882,106.076C103.882,106.076 280.596,92.395 415.874,10.424C418.885,8.599 379.493,84.619 388.26,155.851C403.786,281.991 399.837,388.503 400.003,370.8C396.73,430.665 404.238,355.919 486.178,312.098C650.486,223.281 867.856,235.035 857.328,542.601C846.496,770.186 876.634,945.245 927.923,970.638C973.069,994.974 554.645,973.95 554.323,982.882C520.167,983.253 548.757,969.884 554.323,963.257C596.935,912.517 593.718,496.494 574.055,454.966C565.093,436.04 398.569,409.119 400.003,533.581L400.003,801.781C407.434,874.721 418.658,955.177 455.051,970.638C483.149,985.871 435.21,981.353 371.425,982.882L161.627,982.882C84.722,981.209 50.569,994.842 82.641,970.638C88.429,966.269 100.785,945.135 104.091,935.012Z" style="fill:rgb(37,79,34);"/>
                </g>
            </g>
            <g transform="matrix(0.291141,0,0,0.291141,463.697,329.3)">
                <g id="a">
                    <path d="M571.782,869.097C400.825,1108.44 96.842,1000.5 111.048,833.658C115.606,780.129 129.999,737.688 169.523,689.198C216.818,631.172 299.534,578.69 442.523,536.383C494.582,520.98 569.973,505.987 563.933,454.465C557.031,395.593 534.44,381.42 426.768,394.172C399.066,397.453 374.244,412.83 370.141,415.952C306.043,464.723 310.368,507.41 304.091,536.383C271.399,522.631 257.617,498.673 229.936,469.44C206.397,444.582 170.962,414.401 124.973,399.519C150.745,351.973 216.9,324.654 268.232,310.006C526.414,236.33 691.591,306.349 765.072,394.172C877.741,528.83 791.491,796.882 854.472,860.885C872.607,879.315 896.272,876.781 903.2,877.124C910.46,877.483 912.144,876.031 919.661,877.124C923.325,877.656 906.778,900.672 850.005,947.508C797.157,991.106 731.326,1008.15 707.817,1009.29C617.599,1013.67 567.736,908.476 571.782,869.097ZM570.264,637.129C466.764,696.172 352.705,671.071 390.179,803.535C419.548,871.592 564.294,790.449 570.264,735.072L570.264,637.129Z" style="fill:rgb(37,79,34);"/>
                </g>
            </g>
            <g id="K" transform="matrix(0.291141,0,0,0.291141,236.795,333.508)">
                <path d="M716.992,272.644C508.897,280.318 421.51,495.771 400.084,532.622C395.067,362.999 327.594,180.795 391.528,23.602C392.845,20.366 374.129,45.149 195.887,78.33C156.158,85.726 105.455,80.48 51.38,101.551C44.639,104.178 59.071,114.645 61.549,117.056C69.893,125.171 112.136,153.716 119.447,272.789C122.592,324.005 151.624,796.835 112.997,914.167C102.22,946.9 79.763,984.559 76.961,989.019C68.783,1002.04 86.057,996.277 269.083,992.777C453.907,989.243 470.43,1000.34 463.085,986.655C453.98,969.695 434.443,957.106 424.068,917.555C420.225,902.906 415.041,888.363 413.974,873.256C407.697,784.321 408.357,694.988 402.08,606.054C545.21,896.457 554.086,894.165 557.767,941.715C559.285,961.313 552.387,971.242 552.073,979.891C551.263,1002.2 567.288,990.703 831.077,992.777C940.444,993.637 946.362,999.421 948.227,988.039C949.925,977.672 944.556,980.116 935.719,974.585C884.061,942.255 815.466,821.631 806.924,807.788C760.017,731.771 763.308,730.034 689.227,583.174C683.09,584.336 676.645,581.193 670.509,582.355C665.027,583.392 617.631,603.282 547.411,602.216C510.481,601.656 453.649,583.147 474.39,536.995C503.956,471.21 621.002,429.596 731.576,487.651C748.958,496.777 803.433,515.615 815.293,513.855C820.159,513.132 813.883,454.09 831.077,393.08C846.292,339.093 865.108,288.08 869.6,272.644C874.178,256.912 877.214,263.206 864.491,265.773C853.576,267.974 829.664,272.562 792.457,272.789C755.042,273.017 725.574,271.221 716.992,271.688L716.992,272.644Z" style="fill:rgb(37,79,34);"/>
            </g>
        </g>
    </g>
</svg>
