<?xml version="1.0" encoding="UTF-8" standalone="no"?>
<!DOCTYPE svg PUBLIC "-//W3C//DTD SVG 1.1//EN" "http://www.w3.org/Graphics/SVG/1.1/DTD/svg11.dtd">
<svg width="100%" height="100%" viewBox="0 0 125 52" version="1.1" xmlns="http://www.w3.org/2000/svg" xmlns:xlink="http://www.w3.org/1999/xlink" xml:space="preserve" xmlns:serif="http://www.serif.com/" style="fill-rule:evenodd;clip-rule:evenodd;stroke-linejoin:round;stroke-miterlimit:2;">
    <g id="concept" transform="matrix(0.0754319,0,0,0.0754319,-50.8753,-83.0779)">
        <path d="M975.762,1528.44C975.762,1531.69 974.264,1533.32 971.27,1533.32C968.275,1533.32 962.969,1528.6 955.352,1519.16C947.734,1509.72 938.294,1501.98 927.031,1495.92C915.768,1489.87 904.961,1486.84 894.609,1486.84C884.258,1486.84 875.339,1488.63 867.852,1492.21C860.365,1495.79 853.757,1500.77 848.027,1507.15C835.788,1521.21 829.668,1538.92 829.668,1560.28C829.668,1586.84 837.415,1609.1 852.91,1627.07C867.624,1644 885.267,1652.46 905.84,1652.46C921.725,1652.46 935.918,1647.52 948.418,1637.62C952.715,1634.36 956.133,1630.91 958.672,1627.27C961.211,1623.62 963.099,1621.21 964.336,1620.04C965.573,1618.87 967.005,1618.28 968.633,1618.28C970.26,1618.28 971.628,1618.77 972.734,1619.75C973.841,1620.73 974.395,1621.86 974.395,1623.17C974.395,1628.11 971.921,1633.78 966.973,1640.16C948.613,1663.47 923.548,1675.12 891.777,1675.12C860.788,1675.12 835.072,1665.48 814.629,1646.21C793.926,1626.81 783.574,1602.01 783.574,1571.8C783.574,1544.33 792.949,1520.69 811.699,1500.9C832.142,1479.55 858.444,1468.87 890.605,1468.87C902.845,1468.87 915.931,1470.95 929.863,1475.12C934.16,1476.55 937.09,1477.27 938.652,1477.27C941.126,1477.27 945.065,1475.87 950.469,1473.07C955.872,1470.27 960.007,1468.87 962.871,1468.87C966.647,1468.87 968.535,1471.25 968.535,1476C968.535,1480.75 968.568,1485.14 968.633,1489.18C968.698,1493.22 968.926,1496.93 969.316,1500.32C970.098,1507.09 971.367,1513.01 973.125,1518.09C974.883,1523.17 975.762,1526.62 975.762,1528.44Z" style="fill:rgb(127,73,30);fill-rule:nonzero;"/>
        <path d="M980.02,1567.5C980.02,1556.56 982.852,1544.81 988.516,1532.25C994.18,1519.68 1001.96,1508.71 1011.86,1499.34C1033.08,1479.02 1060.74,1458.66 1089.59,1468.87C1122.64,1480.56 1150.03,1492.38 1172.4,1500.51C1196.21,1509.15 1198.57,1541.52 1198.57,1568.48C1198.57,1599.47 1189.33,1624.73 1170.84,1644.26C1151.18,1664.83 1124.36,1675.12 1090.37,1675.12C1041.41,1675.12 1008.08,1656.63 990.371,1619.65C983.47,1605.19 980.02,1587.81 980.02,1567.5ZM1041.35,1506.17C1036.66,1512.29 1032.95,1519.65 1030.21,1528.24C1027.48,1536.84 1026.11,1547.25 1026.11,1559.49C1026.11,1571.73 1028.16,1584.04 1032.27,1596.41C1036.37,1608.78 1041.8,1619.52 1048.57,1628.63C1063.29,1648.16 1080.21,1657.93 1099.36,1657.93C1113.94,1657.93 1126.18,1651.68 1136.07,1639.18C1146.49,1626.16 1151.7,1610.7 1151.7,1592.79C1151.7,1574.89 1149.55,1559.53 1145.25,1546.7C1140.96,1533.87 1135.36,1523 1128.46,1514.08C1121.56,1505.16 1113.74,1498.36 1105.02,1493.67C1096.3,1488.98 1087.9,1486.64 1079.82,1486.64C1071.75,1486.64 1064.53,1488.37 1058.14,1491.82C1051.76,1495.27 1046.16,1500.05 1041.35,1506.17Z" style="fill:rgb(127,73,30);fill-rule:nonzero;"/>
        <path d="M1223.93,1675.12C1211.56,1675.12 1205.38,1672.19 1205.38,1666.33C1205.38,1662.68 1207.52,1660.86 1211.82,1660.86L1221.39,1662.23C1229.07,1662.23 1234.22,1658.84 1236.82,1652.07C1240.73,1641.53 1242.68,1626.55 1242.68,1607.15L1242.68,1550.32C1242.68,1524.92 1239.82,1508.45 1234.09,1500.9C1231.48,1497.52 1228.32,1495.27 1224.61,1494.16C1220.9,1493.06 1217.32,1492.28 1213.87,1491.82C1210.42,1491.36 1207.72,1490.71 1205.77,1489.87C1203.81,1489.02 1202.84,1487.62 1202.84,1485.67C1202.84,1480.59 1206.74,1478.05 1214.56,1478.05L1242.88,1480.39C1245.35,1480.39 1247.76,1480.26 1250.1,1480L1264.56,1478.44C1267.03,1478.18 1269.44,1478.05 1271.78,1478.05C1274.12,1478.05 1276.21,1478.25 1278.03,1478.64C1279.85,1479.03 1281.42,1480.07 1282.72,1481.76C1285.32,1485.15 1286.62,1491.85 1286.62,1501.88L1286.62,1509.3C1308.24,1485.47 1333.57,1473.56 1362.6,1473.56C1387.86,1473.56 1406.03,1481.37 1417.09,1497C1425.56,1508.71 1429.79,1524.21 1429.79,1543.48L1429.79,1607.15C1429.79,1624.34 1430.44,1635.54 1431.74,1640.75C1433.04,1645.95 1434.25,1650.02 1435.36,1652.95C1436.46,1655.88 1438.41,1658.16 1441.21,1659.79C1444.01,1661.42 1446.78,1662.23 1449.52,1662.23L1459.67,1660.86C1463.71,1660.86 1465.73,1662.62 1465.73,1666.14C1465.73,1672.12 1459.8,1675.12 1447.95,1675.12C1444.57,1675.12 1440.34,1674.73 1435.26,1673.95C1421.46,1672 1410.91,1671.34 1403.62,1672L1389.75,1673.17C1387.54,1673.43 1385.19,1673.69 1382.72,1673.95C1377.12,1674.73 1372.43,1675.12 1368.66,1675.12C1355.64,1675.12 1349.12,1672.19 1349.12,1666.33C1349.12,1662.68 1351.27,1660.86 1355.57,1660.86L1365.73,1662.23C1377.44,1662.23 1383.89,1653.05 1385.06,1634.69C1385.58,1627.66 1385.84,1618.48 1385.84,1607.15L1385.84,1550.9C1385.84,1526.94 1379.07,1510.54 1365.53,1501.68C1360.19,1498.3 1353.94,1496.61 1346.78,1496.61C1339.62,1496.61 1333.27,1497.52 1327.74,1499.34C1322.2,1501.16 1316.96,1503.57 1312.02,1506.57C1302.51,1512.3 1294.05,1520.04 1286.62,1529.81L1286.62,1607.15C1286.62,1625.38 1287.28,1636.87 1288.58,1641.62C1289.88,1646.38 1291.25,1650.25 1292.68,1653.25C1295.54,1659.24 1301.08,1662.23 1309.28,1662.23L1318.85,1660.86C1323.02,1660.86 1325.1,1662.68 1325.1,1666.33C1325.1,1672.19 1318.66,1675.12 1305.77,1675.12C1301.99,1675.12 1298.96,1674.96 1296.68,1674.63C1294.4,1674.31 1292.29,1674.08 1290.34,1673.95L1284.28,1673.17L1270.61,1672.39C1268.27,1672.26 1266.12,1672.19 1264.16,1672.19C1262.21,1672.19 1259.93,1672.26 1257.33,1672.39L1249.91,1672.78C1245.48,1673.04 1241.9,1673.36 1239.16,1673.75C1232.91,1674.66 1227.84,1675.12 1223.93,1675.12Z" style="fill:rgb(127,73,30);fill-rule:nonzero;"/>
        <path d="M1662.17,1528.44C1662.17,1531.69 1660.67,1533.32 1657.68,1533.32C1654.68,1533.32 1649.38,1528.6 1641.76,1519.16C1634.14,1509.72 1624.7,1501.98 1613.44,1495.92C1602.18,1489.87 1591.37,1486.84 1581.02,1486.84C1570.67,1486.84 1561.75,1488.63 1554.26,1492.21C1546.77,1495.79 1540.16,1500.77 1534.44,1507.15C1522.2,1521.21 1516.08,1538.92 1516.08,1560.28C1516.08,1586.84 1523.82,1609.1 1539.32,1627.07C1554.03,1644 1571.67,1652.46 1592.25,1652.46C1608.13,1652.46 1622.33,1647.52 1634.83,1637.62C1639.12,1634.36 1642.54,1630.91 1645.08,1627.27C1647.62,1623.62 1649.51,1621.21 1650.74,1620.04C1651.98,1618.87 1653.41,1618.28 1655.04,1618.28C1656.67,1618.28 1658.04,1618.77 1659.14,1619.75C1660.25,1620.73 1660.8,1621.86 1660.8,1623.17C1660.8,1628.11 1658.33,1633.78 1653.38,1640.16C1635.02,1663.47 1609.96,1675.12 1578.19,1675.12C1547.2,1675.12 1521.48,1665.48 1501.04,1646.21C1480.33,1626.81 1469.98,1602.01 1469.98,1571.8C1469.98,1544.33 1479.36,1520.69 1498.11,1500.9C1518.55,1479.55 1544.85,1468.87 1577.01,1468.87C1589.25,1468.87 1602.34,1470.95 1616.27,1475.12C1620.57,1476.55 1623.5,1477.27 1625.06,1477.27C1627.54,1477.27 1631.47,1475.87 1636.88,1473.07C1642.28,1470.27 1646.41,1468.87 1649.28,1468.87C1653.06,1468.87 1654.94,1471.25 1654.94,1476C1654.94,1480.75 1654.98,1485.14 1655.04,1489.18C1655.11,1493.22 1655.33,1496.93 1655.73,1500.32C1656.51,1507.09 1657.78,1513.01 1659.53,1518.09C1661.29,1523.17 1662.17,1526.62 1662.17,1528.44Z" style="fill:rgb(127,73,30);fill-rule:nonzero;"/>
        <path d="M1698.65,1647.77C1688.76,1638.79 1680.91,1627.91 1675.12,1615.15C1669.32,1602.39 1666.42,1588.66 1666.42,1573.94C1666.42,1559.23 1669.06,1545.65 1674.33,1533.22C1679.61,1520.79 1687.06,1509.82 1696.7,1500.31C1717.79,1479.35 1744.03,1468.86 1775.41,1468.86C1798.59,1468.86 1818.31,1475.11 1834.59,1487.61C1844.35,1495.17 1853.34,1506.1 1861.54,1520.43C1864.93,1526.42 1866.62,1531.17 1866.62,1534.68C1866.62,1540.41 1863.62,1544.32 1857.63,1546.4C1823,1559.03 1786.28,1570.04 1747.48,1579.41L1715.64,1587.03C1720.2,1607.34 1729.64,1623.42 1743.96,1635.27C1757.63,1646.73 1773.19,1652.46 1790.64,1652.46C1807.18,1652.46 1822.8,1647.18 1837.52,1636.64C1842.08,1633.38 1845.53,1630.1 1847.87,1626.77C1850.21,1623.45 1852,1621.21 1853.24,1620.04C1854.48,1618.86 1855.94,1618.28 1857.63,1618.28C1861.28,1618.28 1863.1,1619.97 1863.1,1623.36C1863.1,1627.91 1860.83,1633.32 1856.27,1639.57C1851.71,1645.82 1846.53,1651.12 1840.74,1655.49C1834.95,1659.85 1828.66,1663.53 1821.89,1666.52C1808.48,1672.25 1793.8,1675.11 1777.85,1675.11C1761.9,1675.11 1747.22,1672.77 1733.81,1668.08C1720.39,1663.39 1708.68,1656.62 1698.65,1647.77ZM1713.3,1570.62C1757.57,1559.55 1791.55,1549.85 1815.25,1541.52C1818.38,1540.48 1819.94,1538.66 1819.94,1536.05C1819.94,1533.45 1819.42,1530.49 1818.38,1527.16C1817.34,1523.85 1815.84,1520.36 1813.88,1516.72C1811.93,1513.07 1809.52,1509.46 1806.66,1505.88C1803.79,1502.3 1800.47,1499.07 1796.7,1496.21C1788.36,1489.96 1779.9,1486.83 1771.31,1486.83C1762.71,1486.83 1754.97,1488.36 1748.06,1491.42C1741.16,1494.48 1735.11,1499.14 1729.9,1505.39C1718.7,1518.8 1713.1,1537.88 1713.1,1562.61L1713.1,1566.72C1713.1,1568.02 1713.17,1569.32 1713.3,1570.62Z" style="fill:rgb(127,73,30);fill-rule:nonzero;"/>
        <path d="M1879.86,1764.38L1889.43,1765.75C1897.11,1765.75 1902.26,1762.36 1904.86,1755.59C1908.77,1745.04 1910.72,1730.07 1910.72,1710.67L1910.72,1550.32C1910.72,1524.93 1907.86,1508.46 1902.13,1500.9C1899.52,1497.52 1896.36,1495.27 1892.65,1494.16C1888.94,1493.06 1885.36,1492.28 1881.91,1491.82C1878.46,1491.37 1875.76,1490.71 1873.81,1489.87C1871.85,1489.02 1870.88,1487.62 1870.88,1485.67C1870.88,1480.59 1874.78,1478.05 1882.6,1478.05L1910.91,1480.4C1913.39,1480.4 1915.8,1480.27 1918.14,1480.01L1932.6,1478.44C1935.07,1478.18 1937.38,1478.05 1939.53,1478.05C1941.68,1478.05 1943.47,1478.18 1944.9,1478.44C1946.33,1478.7 1947.63,1479.29 1948.81,1480.2C1951.28,1481.89 1952.97,1485.34 1953.88,1490.55C1970.29,1479.22 1987.87,1473.56 2006.62,1473.56C2025.37,1473.56 2041.42,1475.9 2054.76,1480.59C2068.11,1485.28 2079.47,1492.05 2088.85,1500.9C2108.12,1519.26 2117.75,1544.46 2117.75,1576.49C2117.75,1605.01 2107.6,1629.29 2087.28,1649.34C2066.71,1669.65 2041.45,1679.81 2011.5,1679.81C1988.71,1679.81 1969.77,1674.99 1954.66,1665.36L1954.66,1710.67C1954.66,1728.9 1955.32,1740.39 1956.62,1745.14C1957.92,1749.89 1959.29,1753.77 1960.72,1756.76C1963.58,1762.75 1969.12,1765.75 1977.32,1765.75L1986.89,1764.38C1991.06,1764.38 1993.14,1766.2 1993.14,1769.85C1993.14,1775.71 1986.7,1778.64 1973.81,1778.64L1932.2,1775.71C1930.25,1775.71 1928.04,1775.77 1925.56,1775.9L1918.14,1776.29C1913.58,1776.55 1909.94,1776.88 1907.2,1777.27C1900.95,1778.18 1895.88,1778.64 1891.97,1778.64C1879.6,1778.64 1873.41,1775.71 1873.41,1769.85C1873.41,1766.2 1875.56,1764.38 1879.86,1764.38ZM2000.76,1491.33C1984.35,1491.33 1968.99,1497.84 1954.66,1510.86L1954.66,1629.03C1961.83,1644.91 1974.46,1655.2 1992.56,1659.89C1997.89,1661.19 2004.47,1661.84 2012.28,1661.84C2020.1,1661.84 2027.97,1659.76 2035.91,1655.59C2043.86,1651.42 2050.56,1645.89 2056.03,1638.99C2067.23,1624.8 2072.83,1607.22 2072.83,1586.26C2072.83,1557.74 2065.99,1534.69 2052.32,1517.11C2038.91,1499.93 2021.72,1491.33 2000.76,1491.33Z" style="fill:rgb(127,73,30);fill-rule:nonzero;"/>
        <path d="M2288.81,1625.9C2292.72,1625.9 2294.67,1627.79 2294.67,1631.57C2294.67,1635.99 2291.45,1642.6 2285,1651.39C2278.56,1660.18 2270.12,1666.92 2259.71,1671.6C2249.29,1676.29 2238.74,1678.63 2228.07,1678.63C2217.39,1678.63 2208.08,1677.59 2200.14,1675.51C2192.2,1673.43 2185.49,1670.04 2180.02,1665.35C2168.3,1655.46 2162.44,1640.03 2162.44,1619.07L2162.44,1492.31L2142.13,1492.31C2131.32,1492.31 2125.14,1490.87 2123.57,1488.01C2123.05,1486.97 2122.79,1485.73 2122.79,1484.3C2122.79,1482.87 2123.28,1481.66 2124.26,1480.69C2125.24,1479.71 2126.54,1478.89 2128.16,1478.24C2129.79,1477.59 2131.71,1477.01 2133.93,1476.49L2140.76,1474.92C2161.47,1469.98 2175.46,1456.04 2182.76,1433.13C2185.36,1425.18 2187.35,1416.56 2188.71,1407.25C2190.08,1397.94 2191.61,1391.95 2193.3,1389.28C2194.99,1386.61 2197.11,1385.28 2199.65,1385.28C2202.19,1385.28 2203.95,1386.77 2204.92,1389.77C2205.9,1392.76 2206.39,1397.78 2206.39,1404.81L2206.39,1476.49C2239.12,1480.69 2262.15,1475.12 2267.03,1475.12C2271.91,1475.12 2275.92,1475.28 2279.04,1475.61C2282.17,1475.93 2284.64,1476.42 2286.47,1477.07C2289.59,1478.24 2291.15,1480.26 2291.15,1483.13C2291.15,1489.25 2283.6,1492.31 2268.5,1492.31L2206.39,1492.31L2206.39,1613.4C2206.39,1633.32 2212.57,1646.41 2224.94,1652.66C2229.24,1654.87 2233.54,1655.98 2237.83,1655.98C2242.13,1655.98 2245.81,1655.62 2248.87,1654.9C2251.93,1654.19 2255.15,1652.98 2258.54,1651.29C2266.22,1647.64 2272.79,1641.92 2278.26,1634.1C2282.04,1628.63 2285.55,1625.9 2288.81,1625.9Z" style="fill:rgb(127,73,30);fill-rule:nonzero;"/>
    </g>
    <g id="kahone" transform="matrix(0.0754319,0,0,0.0754319,-50.8753,-83.0779)">
        <path d="M700.234,1492.58C687.214,1492.58 680.703,1489.65 680.703,1483.79C680.703,1480.14 682.852,1478.32 687.148,1478.32L697.305,1479.69C704.076,1479.69 709.023,1476.3 712.148,1469.53C716.055,1460.94 718.008,1445.97 718.008,1424.61L718.008,1174.22C718.008,1147.79 715.013,1130.93 709.023,1123.63C704.466,1118.43 696.328,1115.3 684.609,1114.26C677.839,1113.61 674.453,1111.46 674.453,1107.82C674.453,1106.25 675.365,1104.85 677.187,1103.62C679.01,1102.38 681.582,1101.76 684.902,1101.76C688.223,1101.76 691.185,1101.89 693.789,1102.15L701.992,1102.93C709.414,1103.71 715.729,1104.1 720.937,1104.1C728.359,1104.1 734.707,1103.65 739.98,1102.74C745.254,1101.83 748.965,1101.37 751.113,1101.37C753.262,1101.37 755.085,1101.6 756.582,1102.05C758.079,1102.51 759.219,1103.52 760,1105.08C761.302,1107.82 761.953,1114.59 761.953,1125.39L761.953,1319.14C791.641,1309.64 818.919,1294.92 843.789,1275C853.555,1267.06 858.437,1261.01 858.437,1256.84C858.437,1250.98 853.294,1248.05 843.008,1248.05L831.484,1249.42C827.448,1249.42 825.43,1247.72 825.43,1244.34C825.43,1238.09 831.029,1234.96 842.227,1234.96C846.133,1234.96 850.039,1235.16 853.945,1235.55C857.852,1235.94 861.628,1236.33 865.273,1236.72C873.737,1237.63 880.833,1238.09 886.562,1238.09L918.984,1234.96C929.792,1234.96 935.195,1238.09 935.195,1244.34C935.195,1247.72 933.112,1249.42 928.945,1249.42L918.008,1248.05C912.148,1248.05 903.685,1253 892.617,1262.89C866.836,1285.94 838.711,1304.88 808.242,1319.73L889.297,1394.53C908.307,1412.11 922.5,1420.9 931.875,1420.9L940.469,1419.53C942.292,1419.53 943.822,1420.02 945.059,1421C946.296,1421.98 946.914,1423.18 946.914,1424.61C946.914,1430.86 941.641,1433.99 931.094,1433.99L902.969,1432.23L879.141,1433.99C872.5,1433.99 863.451,1429.04 851.992,1419.14C846.784,1414.72 840.143,1408.66 832.07,1400.98L802.969,1372.27L761.953,1330.28L761.953,1424.61C761.953,1441.8 762.604,1453 763.906,1458.2C765.208,1463.41 766.413,1467.48 767.52,1470.41C768.626,1473.34 770.579,1475.62 773.379,1477.25C776.178,1478.88 778.945,1479.69 781.68,1479.69L791.836,1478.32C795.872,1478.32 797.891,1480.08 797.891,1483.6C797.891,1489.59 791.966,1492.58 780.117,1492.58C776.732,1492.58 772.5,1492.19 767.422,1491.41C758.698,1490.24 751.732,1489.65 746.523,1489.65C741.315,1489.65 737.572,1489.68 735.293,1489.75C733.014,1489.81 730.768,1489.98 728.555,1490.24L721.914,1490.63C719.701,1490.89 717.357,1491.15 714.883,1491.41C709.284,1492.19 704.401,1492.58 700.234,1492.58Z" style="fill:rgb(127,73,30);fill-rule:nonzero;"/>
        <path d="M1108.59,1433.88C1101.17,1433.88 1096.94,1427.24 1095.89,1413.96C1084.44,1425.81 1069.33,1433.49 1050.58,1437.01C1044.59,1438.05 1036.68,1438.57 1026.85,1438.57C1017.02,1438.57 1007.03,1437.1 996.871,1434.17C986.715,1431.24 978.251,1427.11 971.48,1421.77C957.939,1411.09 951.168,1396.05 951.168,1376.65C951.168,1355.56 959.566,1339.61 976.363,1328.8C991.077,1319.3 1010.02,1314.54 1033.2,1314.54C1056.38,1314.54 1077.21,1319.49 1095.7,1329.39L1095.7,1305.95C1095.7,1287.59 1090.3,1273.46 1079.49,1263.57C1069.46,1254.45 1055.66,1249.89 1038.08,1249.89C1017.38,1249.89 998.629,1261.35 981.832,1284.27C975.712,1292.34 971.09,1296.38 967.965,1296.38C964.84,1296.38 963.277,1294.95 963.277,1292.08C963.277,1289.22 964.124,1285.31 965.816,1280.36C969.072,1270.86 970.699,1257.25 970.699,1239.54C970.699,1233.82 972.782,1230.95 976.949,1230.95C982.157,1230.95 988.017,1233.49 994.527,1238.57C996.35,1240 997.913,1240.72 999.215,1240.72C1001.04,1240.72 1003.25,1240.23 1005.86,1239.25C1008.46,1238.27 1011.42,1237.43 1014.74,1236.71C1018.06,1236 1021.61,1235.31 1025.39,1234.66C1034.5,1233.1 1041.4,1232.32 1046.09,1232.32C1097,1232.32 1126.62,1248.27 1134.96,1280.17C1137.43,1289.67 1138.67,1299.83 1138.67,1310.64L1138.67,1366.5C1138.67,1385.38 1139.12,1397.03 1140.04,1401.46C1140.95,1405.88 1142.02,1409.6 1143.26,1412.59C1144.5,1415.59 1146.94,1417.86 1150.58,1419.43C1154.23,1420.99 1157.81,1421.77 1161.32,1421.77L1172.26,1420.21C1176.43,1420.21 1178.51,1421.9 1178.51,1425.29C1178.51,1431.41 1172.46,1434.47 1160.35,1434.47L1130.46,1432.71C1128.77,1432.71 1127.01,1432.77 1125.19,1432.9L1120.11,1433.29C1116.6,1433.68 1112.76,1433.88 1108.59,1433.88ZM1008.78,1345.01C1004.75,1348.66 1001.72,1352.83 999.703,1357.51C997.685,1362.2 996.676,1367.54 996.676,1373.53C996.676,1379.52 997.75,1385.28 999.898,1390.81C1002.05,1396.35 1005.2,1401.07 1009.37,1404.97C1017.97,1413.05 1030.27,1417.08 1046.29,1417.08C1060.87,1417.08 1074.02,1412.66 1085.74,1403.8C1089.51,1400.94 1092.84,1397.62 1095.7,1393.84L1095.7,1347.36C1085.67,1341.11 1073.63,1336.74 1059.57,1334.27C1055.01,1333.49 1049.54,1333.1 1043.16,1333.1C1036.78,1333.1 1030.5,1334.17 1024.31,1336.32C1018.13,1338.47 1012.95,1341.37 1008.78,1345.01Z" style="fill:rgb(127,73,30);fill-rule:nonzero;"/>
        <path d="M1207.58,1433.98C1195.21,1433.98 1189.03,1431.05 1189.03,1425.19C1189.03,1421.55 1191.17,1419.72 1195.47,1419.72L1205.04,1421.09C1212.72,1421.09 1217.87,1417.7 1220.47,1410.93C1224.38,1400.39 1226.33,1385.41 1226.33,1366.01L1226.33,1173.63C1226.33,1147.85 1223.34,1131.18 1217.35,1123.63C1212.79,1118.42 1204.65,1115.3 1192.93,1114.25C1186.16,1113.6 1182.78,1111.45 1182.78,1107.81C1182.78,1106.25 1183.69,1104.85 1185.51,1103.61C1187.33,1102.37 1189.9,1101.75 1193.23,1101.75C1196.55,1101.75 1199.57,1101.88 1202.31,1102.14L1210.32,1102.93C1217.74,1103.71 1224.05,1104.1 1229.26,1104.1C1236.68,1104.1 1243.03,1103.64 1248.3,1102.73C1253.58,1101.82 1257.29,1101.36 1259.44,1101.36C1261.58,1101.36 1263.41,1101.59 1264.9,1102.05C1266.4,1102.5 1267.54,1103.51 1268.32,1105.07C1269.62,1107.81 1270.28,1114.58 1270.28,1125.39L1270.28,1268.16C1291.89,1244.33 1317.22,1232.42 1346.25,1232.42C1371.51,1232.42 1389.68,1240.23 1400.74,1255.86C1409.21,1267.57 1413.44,1283.07 1413.44,1302.34L1413.44,1366.01C1413.44,1383.2 1414.09,1394.4 1415.39,1399.61C1416.69,1404.81 1417.9,1408.88 1419.01,1411.81C1420.11,1414.74 1422.07,1417.02 1424.87,1418.65C1427.66,1420.28 1430.43,1421.09 1433.17,1421.09L1443.32,1419.72C1447.36,1419.72 1449.38,1421.48 1449.38,1425C1449.38,1430.99 1443.45,1433.98 1431.6,1433.98C1428.22,1433.98 1423.99,1433.59 1418.91,1432.81C1405.11,1430.86 1394.56,1430.2 1387.27,1430.86L1373.4,1432.03C1371.19,1432.29 1368.84,1432.55 1366.37,1432.81C1360.77,1433.59 1356.08,1433.98 1352.31,1433.98C1339.29,1433.98 1332.78,1431.05 1332.78,1425.19C1332.78,1421.55 1334.92,1419.72 1339.22,1419.72L1349.38,1421.09C1361.1,1421.09 1367.54,1411.91 1368.71,1393.55C1369.23,1386.52 1369.49,1377.34 1369.49,1366.01L1369.49,1309.76C1369.49,1285.8 1362.72,1269.4 1349.18,1260.54C1343.84,1257.16 1337.59,1255.46 1330.43,1255.46C1323.27,1255.46 1316.92,1256.38 1311.39,1258.2C1305.86,1260.02 1300.61,1262.43 1295.67,1265.43C1286.16,1271.15 1277.7,1278.9 1270.28,1288.67L1270.28,1366.01C1270.28,1384.24 1270.93,1395.73 1272.23,1400.48C1273.53,1405.24 1274.9,1409.11 1276.33,1412.11C1279.19,1418.1 1284.73,1421.09 1292.93,1421.09L1302.5,1419.72C1306.67,1419.72 1308.75,1421.55 1308.75,1425.19C1308.75,1431.05 1302.31,1433.98 1289.42,1433.98C1285.64,1433.98 1282.61,1433.82 1280.33,1433.49C1278.06,1433.17 1275.94,1432.94 1273.99,1432.81L1267.93,1432.03L1254.26,1431.25C1251.92,1431.12 1249.77,1431.05 1247.82,1431.05C1245.86,1431.05 1243.58,1431.12 1240.98,1431.25L1233.56,1431.64C1229.13,1431.9 1225.55,1432.22 1222.82,1432.61C1216.57,1433.53 1211.49,1433.98 1207.58,1433.98Z" style="fill:rgb(127,73,30);fill-rule:nonzero;"/>
        <path d="M1453.63,1326.37C1453.63,1315.43 1456.46,1303.68 1462.13,1291.12C1467.79,1278.55 1475.57,1267.58 1485.47,1258.21C1506.69,1237.89 1534.35,1217.53 1563.2,1227.74C1596.25,1239.43 1623.64,1251.26 1646.01,1259.38C1669.82,1268.02 1672.18,1300.39 1672.18,1327.35C1672.18,1358.34 1662.94,1383.6 1644.45,1403.13C1624.79,1423.7 1597.97,1433.99 1563.98,1433.99C1515.02,1433.99 1481.69,1415.5 1463.98,1378.52C1457.08,1364.07 1453.63,1346.68 1453.63,1326.37ZM1514.96,1265.04C1510.27,1271.16 1506.56,1278.52 1503.83,1287.11C1501.09,1295.71 1499.72,1306.12 1499.72,1318.36C1499.72,1330.6 1501.77,1342.91 1505.88,1355.28C1509.98,1367.65 1515.41,1378.39 1522.18,1387.5C1536.9,1407.03 1553.83,1416.8 1572.97,1416.8C1587.55,1416.8 1599.79,1410.55 1609.68,1398.05C1620.1,1385.03 1625.31,1369.57 1625.31,1351.66C1625.31,1333.76 1623.16,1318.39 1618.86,1305.57C1614.57,1292.74 1608.97,1281.87 1602.07,1272.95C1595.17,1264.03 1587.35,1257.23 1578.63,1252.54C1569.91,1247.86 1561.51,1245.51 1553.43,1245.51C1545.36,1245.51 1538.13,1247.24 1531.76,1250.69C1525.38,1254.14 1519.78,1258.92 1514.96,1265.04Z" style="fill:rgb(127,73,30);fill-rule:nonzero;"/>
        <path d="M1697.54,1433.98C1685.17,1433.98 1678.99,1431.05 1678.99,1425.19C1678.99,1421.55 1681.13,1419.72 1685.43,1419.72L1695,1421.09C1702.68,1421.09 1707.83,1417.7 1710.43,1410.93C1714.34,1400.39 1716.29,1385.41 1716.29,1366.01L1716.29,1309.18C1716.29,1283.79 1713.42,1267.31 1707.7,1259.76C1705.09,1256.38 1701.93,1254.13 1698.22,1253.02C1694.51,1251.92 1690.93,1251.13 1687.48,1250.68C1684.03,1250.22 1681.33,1249.57 1679.38,1248.73C1677.42,1247.88 1676.45,1246.48 1676.45,1244.53C1676.45,1239.45 1680.35,1236.91 1688.16,1236.91L1716.49,1239.25C1718.96,1239.25 1721.37,1239.12 1723.71,1238.86L1738.16,1237.3C1740.64,1237.04 1743.05,1236.91 1745.39,1236.91C1747.74,1236.91 1749.82,1237.11 1751.64,1237.5C1753.47,1237.89 1755.03,1238.93 1756.33,1240.62C1758.93,1244.01 1760.24,1250.71 1760.24,1260.74L1760.24,1268.16C1781.85,1244.33 1807.17,1232.42 1836.21,1232.42C1861.47,1232.42 1879.64,1240.23 1890.7,1255.86C1899.17,1267.57 1903.4,1283.07 1903.4,1302.34L1903.4,1366.01C1903.4,1383.2 1904.05,1394.4 1905.35,1399.61C1906.65,1404.81 1907.86,1408.88 1908.97,1411.81C1910.07,1414.74 1912.03,1417.02 1914.83,1418.65C1917.62,1420.28 1920.39,1421.09 1923.13,1421.09L1933.28,1419.72C1937.32,1419.72 1939.34,1421.48 1939.34,1425C1939.34,1430.99 1933.41,1433.98 1921.56,1433.98C1918.18,1433.98 1913.95,1433.59 1908.87,1432.81C1895.07,1430.86 1884.52,1430.2 1877.23,1430.86L1863.36,1432.03C1861.15,1432.29 1858.8,1432.55 1856.33,1432.81C1850.73,1433.59 1846.04,1433.98 1842.27,1433.98C1829.25,1433.98 1822.74,1431.05 1822.74,1425.19C1822.74,1421.55 1824.88,1419.72 1829.18,1419.72L1839.34,1421.09C1851.06,1421.09 1857.5,1411.91 1858.67,1393.55C1859.19,1386.52 1859.45,1377.34 1859.45,1366.01L1859.45,1309.76C1859.45,1285.8 1852.68,1269.4 1839.14,1260.54C1833.8,1257.16 1827.55,1255.46 1820.39,1255.46C1813.23,1255.46 1806.88,1256.38 1801.35,1258.2C1795.82,1260.02 1790.57,1262.43 1785.63,1265.43C1776.12,1271.15 1767.66,1278.9 1760.24,1288.67L1760.24,1366.01C1760.24,1384.24 1760.89,1395.73 1762.19,1400.48C1763.49,1405.24 1764.86,1409.11 1766.29,1412.11C1769.15,1418.1 1774.69,1421.09 1782.89,1421.09L1792.46,1419.72C1796.63,1419.72 1798.71,1421.55 1798.71,1425.19C1798.71,1431.05 1792.27,1433.98 1779.38,1433.98C1775.6,1433.98 1772.57,1433.82 1770.29,1433.49C1768.02,1433.17 1765.9,1432.94 1763.95,1432.81L1757.89,1432.03L1744.22,1431.25C1741.88,1431.12 1739.73,1431.05 1737.77,1431.05C1735.82,1431.05 1733.54,1431.12 1730.94,1431.25L1723.52,1431.64C1719.09,1431.9 1715.51,1432.22 1712.77,1432.61C1706.52,1433.53 1701.45,1433.98 1697.54,1433.98Z" style="fill:rgb(127,73,30);fill-rule:nonzero;"/>
        <path d="M1975.82,1406.64C1965.92,1397.65 1958.08,1386.78 1952.29,1374.02C1946.49,1361.26 1943.59,1347.53 1943.59,1332.81C1943.59,1318.1 1946.23,1304.52 1951.5,1292.09C1956.78,1279.65 1964.23,1268.68 1973.87,1259.18C1994.96,1238.21 2021.2,1227.73 2052.58,1227.73C2075.76,1227.73 2095.48,1233.98 2111.76,1246.48C2121.52,1254.04 2130.51,1264.97 2138.71,1279.3C2142.1,1285.29 2143.79,1290.04 2143.79,1293.55C2143.79,1299.28 2140.79,1303.19 2134.8,1305.27C2100.17,1317.9 2063.45,1328.9 2024.65,1338.28L1992.81,1345.9C1997.37,1366.21 2006.81,1382.29 2021.13,1394.14C2034.81,1405.6 2050.37,1411.33 2067.81,1411.33C2084.35,1411.33 2099.97,1406.05 2114.69,1395.51C2119.24,1392.25 2122.7,1388.96 2125.04,1385.64C2127.38,1382.32 2129.17,1380.08 2130.41,1378.9C2131.65,1377.73 2133.11,1377.15 2134.8,1377.15C2138.45,1377.15 2140.27,1378.84 2140.27,1382.23C2140.27,1386.78 2137.99,1392.19 2133.44,1398.44C2128.88,1404.69 2123.7,1409.99 2117.91,1414.35C2112.12,1418.72 2105.83,1422.39 2099.06,1425.39C2085.65,1431.12 2070.97,1433.98 2055.02,1433.98C2039.07,1433.98 2024.39,1431.64 2010.98,1426.95C1997.57,1422.27 1985.85,1415.49 1975.82,1406.64ZM1990.47,1329.49C2034.74,1318.42 2068.72,1308.72 2092.42,1300.39C2095.55,1299.35 2097.11,1297.53 2097.11,1294.92C2097.11,1292.32 2096.59,1289.35 2095.55,1286.03C2094.51,1282.71 2093.01,1279.23 2091.05,1275.59C2089.1,1271.94 2086.69,1268.33 2083.83,1264.75C2080.96,1261.16 2077.64,1257.94 2073.87,1255.08C2065.53,1248.83 2057.07,1245.7 2048.48,1245.7C2039.88,1245.7 2032.13,1247.23 2025.23,1250.29C2018.33,1253.35 2012.28,1258.01 2007.07,1264.26C1995.87,1277.67 1990.27,1296.74 1990.27,1321.48L1990.27,1325.59C1990.27,1326.89 1990.34,1328.19 1990.47,1329.49Z" style="fill:rgb(127,73,30);fill-rule:nonzero;"/>
    </g>
</svg>
